<svg width="104" height="24" viewBox="0 0 104 24" fill="none" xmlns="http://www.w3.org/2000/svg">
<rect width="104.002" height="24" rx="4" fill="white"/>
<path d="M31.6323 10.8032C31.5029 10.5576 30.9035 9.54659 29.299 9.54659C27.8246 9.54659 26.7711 10.7424 26.7711 12.2295C26.7711 13.7167 27.8239 14.9125 29.3149 14.9125C30.9353 14.9125 31.5347 13.9158 31.6641 13.6559H33.1225C33.0416 14.1922 32.1833 16.2006 29.3149 16.2006C27.0299 16.2006 25.2476 14.4686 25.2476 12.2303C25.2476 9.99196 27.014 8.25989 29.299 8.25989C32.1992 8.25989 32.9931 10.2376 33.1225 10.8047H31.6316L31.6323 10.8032Z" fill="#FF5200"/>
<path d="M34.834 8.44244H36.3091V14.1449L40.9591 8.44244H42.4335V16.0152H40.9591V10.2669L36.3091 16.0152H34.834V8.44244Z" fill="#FF5200"/>
<path d="M47.0064 9.69979H43.7656V8.44244H51.7216V9.69979H48.4815V16.0152H47.0064V9.69979Z" fill="#FF5200"/>
<path d="M53.0532 8.44244H54.5283V14.1449L59.1784 8.44244H60.6527V16.0152H59.1784V10.2669L54.5283 16.0152H53.0532V8.44244Z" fill="#FF5200"/>
<path d="M64.1237 8.44244H70.0869V16.0159H68.6126V9.69979H65.3067L64.9986 12.735C64.7557 15.065 64.1237 16.1226 62.4223 16.1226H61.9849V14.8652H62.1794C63.2813 14.8652 63.5084 14.3597 63.6863 12.6427L64.1237 8.44244Z" fill="#FF5200"/>
<path d="M72.3994 8.44244H73.8737V14.1449L78.5246 8.44244H79.9989V16.0152H78.5246V10.2669L73.8737 16.0152H72.3994V8.44244Z" fill="#FF5200"/>
<path d="M82.311 8.44244H83.7861V11.5393H88.2742V8.44244H89.7486V16.0152H88.2742V12.7959H83.7861V16.0152H82.311V8.44244Z" fill="#FF5200"/>
<path d="M92.0459 8.44244H93.4718V11.7233L97.6852 8.44244H99.7915L95.0597 12.0756L100.002 16.0152H97.9115L93.4718 12.551V16.0152H92.0459V8.44244Z" fill="#FF5200"/>
<path d="M17.0904 18.3777L8.35111 19.9386C6.09117 20.3424 4 18.7027 4 16.5267V7.47327C4 5.29726 6.09117 3.65755 8.35111 4.06139L17.0904 5.62234C18.3884 5.85433 19.3284 6.92694 19.3284 8.17712V15.8236C19.3284 17.0738 18.3884 18.1464 17.0904 18.3784" fill="#FF5200"/>
<path d="M8.75747 15.1732V9.10413C8.75747 8.81843 9.02615 8.60004 9.32434 8.64229L15.7538 9.5452L15.7477 8.19119L9.61422 7.28971C8.4184 7.11285 7.33838 7.98712 7.33838 9.13205V15.1453C7.33838 16.2902 8.4184 17.1645 9.61422 16.9876L15.7538 16.0782L15.7606 14.7235L9.3251 15.6343C9.0269 15.6766 8.75822 15.4582 8.75822 15.1725" fill="white"/>
</svg>
