<svg width="56" height="40" viewBox="0 0 56 40" fill="none" xmlns="http://www.w3.org/2000/svg">
<g id="Group 73387336">
<path id="Vector" d="M35.2572 39.3942L31.1007 32.1082L27.0303 39.3942H22.159L28.4202 28.4129L22.0332 18.2139H27.1296L31.2133 25.0248L35.1116 18.2139H39.9896L33.7085 28.7482L40.1616 39.3942H35.2572Z" fill="black"/>
<path id="Vector_2" d="M56.0003 32.199C56.0003 36.8585 52.6909 39.7574 48.316 39.7574C44.4773 39.7574 41.2407 37.522 40.9297 32.6531H45.0862C45.3708 34.7488 46.9791 35.6779 48.7264 35.6779C50.904 35.6779 51.8438 34.134 51.8438 32.1362C51.8438 30.1383 50.381 28.7482 48.3491 28.7482C47.7009 28.7127 47.055 28.8557 46.4749 29.1631C45.8947 29.4705 45.4002 29.9317 45.0398 30.5015H41.0687L42.4453 18.2139H55.4907L55.0538 22.3284H45.7084L45.3377 26.394C45.3377 26.394 46.3173 25.1785 49.3089 25.1785C52.8763 25.1785 56.0003 27.7143 56.0003 32.199Z" fill="black"/>
<path id="Vector_3" d="M41.4193 15.5803C39.2087 6.49904 32.1533 0.0653076 17.5923 0.0653076H0L2.38932 17.1172C4.18297 32.4854 9.76247 37.4592 19.6308 39.2824C19.6767 39.2959 19.7249 39.297 19.7713 39.2857C19.8176 39.2743 19.8605 39.2509 19.8961 39.2176C19.9316 39.1842 19.9587 39.142 19.9748 39.0947C19.9909 39.0475 19.9955 38.9967 19.9883 38.9471C19.99 38.8814 19.9725 38.8166 19.9381 38.7616C19.9038 38.7066 19.8543 38.6641 19.7963 38.6398C13.1248 35.6779 12.3636 25.9539 10.9406 16.2021L9.83527 8.42708H19.8824C29.1484 8.42708 36.3032 8.27339 40.8303 15.8248C40.8619 15.8787 40.9057 15.9234 40.9576 15.9551C41.0096 15.9868 41.0681 16.0044 41.1281 16.0064C41.1693 16.0065 41.2099 15.9977 41.2478 15.9807C41.2856 15.9637 41.3198 15.9388 41.3482 15.9074C41.3767 15.8761 41.3988 15.839 41.4134 15.7984C41.4278 15.7578 41.4344 15.7145 41.4326 15.6711C41.432 15.6404 41.4274 15.6098 41.4193 15.5803Z" fill="#5FAF2D"/>
</g>
</svg>
