<svg width="28" height="24" viewBox="0 0 28 24" fill="none" xmlns="http://www.w3.org/2000/svg">
<rect width="28" height="24" rx="4" fill="white"/>
<path d="M16.592 18.9582L15.1075 16.3561L13.6538 18.9582H11.9141L14.1502 15.0363L11.8691 11.3939H13.6893L15.1477 13.8263L16.54 11.3939H18.2821L16.0389 15.1561L18.3435 18.9582H16.592Z" fill="black"/>
<path d="M24 16.3885C24 18.0526 22.8181 19.0879 21.2556 19.0879C19.8847 19.0879 18.7288 18.2896 18.6177 16.5507H20.1021C20.2038 17.2992 20.7782 17.631 21.4022 17.631C22.1799 17.631 22.5155 17.0796 22.5155 16.3661C22.5155 15.6526 21.9931 15.1561 21.2675 15.1561C21.036 15.1434 20.8053 15.1945 20.5981 15.3043C20.3909 15.4141 20.2143 15.5788 20.0856 15.7823H18.6673L19.159 11.3939H23.818L23.662 12.8633H20.3243L20.192 14.3153C20.192 14.3153 20.5418 13.8812 21.6102 13.8812C22.8843 13.8812 24 14.7868 24 16.3885Z" fill="black"/>
<path d="M18.7925 10.4532C18.003 7.20986 15.4832 4.91211 10.2829 4.91211H4L4.85333 11.002C5.49391 16.4907 7.48658 18.267 11.011 18.9181C11.0273 18.9229 11.0446 18.9233 11.0611 18.9193C11.0777 18.9152 11.093 18.9069 11.1057 18.895C11.1184 18.8831 11.1281 18.868 11.1338 18.8511C11.1396 18.8343 11.1412 18.8161 11.1386 18.7984C11.1392 18.7749 11.133 18.7518 11.1207 18.7321C11.1085 18.7125 11.0908 18.6973 11.0701 18.6886C8.68739 17.6308 8.41554 14.158 7.90734 10.6752L7.51258 7.89844H11.1008C14.4101 7.89844 16.9653 7.84355 18.5822 10.5405C18.5935 10.5597 18.6091 10.5757 18.6276 10.587C18.6462 10.5983 18.6671 10.6046 18.6885 10.6053C18.7032 10.6054 18.7178 10.6022 18.7313 10.5961C18.7448 10.5901 18.757 10.5812 18.7671 10.57C18.7773 10.5588 18.7852 10.5455 18.7904 10.531C18.7956 10.5165 18.7979 10.5011 18.7973 10.4856C18.797 10.4746 18.7954 10.4637 18.7925 10.4532Z" fill="#5FAF2D"/>
</svg>
