<svg width="27" height="25" viewBox="0 0 27 25" fill="none" xmlns="http://www.w3.org/2000/svg">
<path d="M20.317 21.875C19.3859 21.875 18.4756 21.6115 17.7013 21.1179C16.9271 20.6243 16.3236 19.9227 15.9673 19.1019C15.6109 18.2811 15.5177 17.3778 15.6994 16.5064C15.881 15.635 16.3294 14.8346 16.9879 14.2064C17.6463 13.5781 18.4852 13.1503 19.3985 12.9769C20.3118 12.8036 21.2585 12.8926 22.1188 13.2326C22.9791 13.5726 23.7144 14.1484 24.2317 14.8871C24.7491 15.6258 25.0252 16.4943 25.0252 17.3828C25.0239 18.5738 24.5274 19.7157 23.6447 20.5578C22.7621 21.4 21.5653 21.8737 20.317 21.875ZM20.317 14.4531C19.7098 14.4531 19.1161 14.6249 18.6111 14.9469C18.1062 15.2688 17.7126 15.7263 17.4802 16.2617C17.2478 16.797 17.187 17.3861 17.3055 17.9544C17.424 18.5227 17.7164 19.0447 18.1458 19.4544C18.5753 19.8641 19.1224 20.1432 19.718 20.2562C20.3136 20.3692 20.931 20.3112 21.4921 20.0895C22.0532 19.8678 22.5327 19.4922 22.8701 19.0105C23.2075 18.5287 23.3876 17.9623 23.3876 17.3828C23.3866 16.6061 23.0628 15.8614 22.4872 15.3122C21.9116 14.763 21.1311 14.454 20.317 14.4531Z" fill="#1D2E5B"/>
<path d="M6.80679 21.875C5.87561 21.875 4.96533 21.6115 4.19108 21.1179C3.41683 20.6243 2.81337 19.9227 2.45702 19.1019C2.10067 18.2811 2.00744 17.3778 2.1891 16.5064C2.37077 15.635 2.81917 14.8346 3.47762 14.2064C4.13607 13.5781 4.97498 13.1503 5.88828 12.9769C6.80157 12.8036 7.74822 12.8926 8.60853 13.2326C9.46883 13.5726 10.2041 14.1484 10.7215 14.8871C11.2388 15.6258 11.515 16.4943 11.515 17.3828C11.5136 18.5738 11.0171 19.7157 10.1345 20.5578C9.25181 21.4 8.05506 21.8737 6.80679 21.875ZM6.80679 14.4531C6.1995 14.4531 5.60584 14.6249 5.10089 14.9469C4.59595 15.2688 4.20239 15.7263 3.96999 16.2617C3.73758 16.797 3.67678 17.3861 3.79526 17.9544C3.91373 18.5227 4.20617 19.0447 4.6356 19.4544C5.06502 19.8641 5.61213 20.1432 6.20776 20.2562C6.80339 20.3692 7.42077 20.3112 7.98184 20.0895C8.5429 19.8678 9.02246 19.4922 9.35985 19.0105C9.69725 18.5287 9.87733 17.9623 9.87733 17.3828C9.87638 16.6061 9.55258 15.8614 8.97695 15.3122C8.40131 14.763 7.62086 14.454 6.80679 14.4531Z" fill="#1D2E5B"/>
<path d="M16.8371 6.25005C17.0528 6.25076 17.2665 6.21067 17.4659 6.1321C17.6652 6.05352 17.8463 5.93802 17.9986 5.79227C18.1508 5.64651 18.2713 5.47341 18.3531 5.28295C18.4348 5.09249 18.4761 4.88847 18.4747 4.68267C18.4771 4.4779 18.4367 4.27473 18.3558 4.08504C18.2749 3.89535 18.1552 3.72295 18.0037 3.57792C17.8522 3.43289 17.6719 3.31814 17.4733 3.24038C17.2748 3.16262 17.062 3.12341 16.8473 3.12505C16.6323 3.12441 16.4192 3.16419 16.2203 3.24212C16.0213 3.32005 15.8404 3.4346 15.6879 3.57924C15.5353 3.72388 15.4141 3.89577 15.3312 4.0851C15.2483 4.27442 15.2053 4.47748 15.2046 4.68267C15.2039 4.88786 15.2456 5.09116 15.3273 5.28098C15.409 5.4708 15.529 5.64341 15.6806 5.78895C15.8322 5.9345 16.0124 6.05013 16.2108 6.12924C16.4092 6.20836 16.622 6.24941 16.8371 6.25005Z" fill="#1D2E5B"/>
<path d="M19.2704 9.37504H17.031C16.9942 9.37505 16.9582 9.36563 16.9266 9.34776C16.895 9.32989 16.869 9.30423 16.8514 9.27348L15.227 6.43315C15.1126 6.22207 14.9477 6.03967 14.7456 5.90071C14.5435 5.76175 14.31 5.67014 14.064 5.6333C13.8179 5.59645 13.5662 5.6154 13.3292 5.68862C13.0923 5.76183 12.8767 5.88725 12.7 6.05473L9.12486 9.49223C8.82451 9.78473 8.65402 10.1765 8.64893 10.586C8.64893 11.4356 9.29374 11.7383 9.59568 11.9092C11.0542 12.711 12.0813 13.2974 12.6447 13.6231C12.6747 13.6405 12.6994 13.6649 12.7166 13.6941C12.7339 13.7233 12.7429 13.7561 12.743 13.7896V17.1646C12.743 17.585 13.0818 17.9458 13.5224 17.9668C13.633 17.9719 13.7436 17.9555 13.8474 17.9187C13.9512 17.8818 14.046 17.8253 14.1263 17.7524C14.2065 17.6796 14.2704 17.5919 14.3141 17.4949C14.3578 17.3978 14.3804 17.2932 14.3806 17.1875V12.9883C14.3807 12.8643 14.3498 12.742 14.2905 12.6317C14.2313 12.5213 14.1453 12.426 14.0398 12.3536L12.1463 11.0542C12.1225 11.038 12.1027 11.0171 12.0881 10.993C12.0735 10.9688 12.0644 10.942 12.0616 10.9142C12.0588 10.8864 12.0623 10.8584 12.0717 10.8321C12.0812 10.8057 12.0965 10.7815 12.1166 10.7613L14.266 8.57426C14.288 8.55176 14.3153 8.53455 14.3456 8.52404C14.376 8.51352 14.4085 8.51001 14.4405 8.51377C14.4726 8.51753 14.5032 8.52846 14.53 8.54568C14.5567 8.5629 14.5788 8.58591 14.5945 8.61284L15.7112 10.5357C15.7821 10.6576 15.886 10.7591 16.012 10.8298C16.138 10.9005 16.2815 10.9377 16.4276 10.9375H19.2935C19.4044 10.9377 19.5142 10.9163 19.6162 10.8747C19.7182 10.8331 19.8103 10.7722 19.8868 10.6956C19.9634 10.619 20.0229 10.5284 20.0616 10.4292C20.1004 10.3301 20.1176 10.2244 20.1123 10.1187C20.0908 9.69829 19.7111 9.37504 19.2704 9.37504Z" fill="#1D2E5B"/>
</svg>
