<svg width="20" height="20" viewBox="0 0 20 20" fill="none" xmlns="http://www.w3.org/2000/svg">
<g clip-path="url(#clip0_1369_1075)">
<path d="M5.68801 13.5714C5.68801 13.1771 5.53455 12.8404 5.22763 12.5614C4.9207 12.2824 4.55034 12.1429 4.11655 12.1429C3.68277 12.1429 3.31241 12.2824 3.00548 12.5614C2.69856 12.8404 2.54509 13.1771 2.54509 13.5714C2.54509 13.9658 2.69856 14.3025 3.00548 14.5815C3.31241 14.8605 3.68277 15 4.11655 15C4.55034 15 4.9207 14.8605 5.22763 14.5815C5.53455 14.3025 5.68801 13.9658 5.68801 13.5714ZM18.2597 13.5714C18.2597 13.1771 18.1062 12.8404 17.7993 12.5614C17.4924 12.2824 17.122 12.1429 16.6882 12.1429C16.2544 12.1429 15.8841 12.2824 15.5772 12.5614C15.2702 12.8404 15.1168 13.1771 15.1168 13.5714C15.1168 13.9658 15.2702 14.3025 15.5772 14.5815C15.8841 14.8605 16.2544 15 16.6882 15C17.122 15 17.4924 14.8605 17.7993 14.5815C18.1062 14.3025 18.2597 13.9658 18.2597 13.5714ZM17.695 9.15179L16.811 4.86607C16.7701 4.69494 16.678 4.55543 16.5348 4.44754C16.3915 4.33966 16.2258 4.28571 16.0376 4.28571H4.76724C4.57899 4.28571 4.41325 4.33966 4.27002 4.44754C4.12678 4.55543 4.03471 4.69494 3.99378 4.86607L3.10984 9.15179C3.06891 9.375 3.12621 9.57217 3.28172 9.7433C3.43722 9.91443 3.63775 10 3.88329 10H16.9215C17.167 10 17.3676 9.91443 17.5231 9.7433C17.6786 9.57217 17.7359 9.375 17.695 9.15179ZM14.9203 2.32143C14.9203 2.17262 14.8631 2.04613 14.7485 1.94196C14.6339 1.8378 14.4947 1.78571 14.331 1.78571H6.47374C6.31005 1.78571 6.17091 1.8378 6.05633 1.94196C5.94174 2.04613 5.88445 2.17262 5.88445 2.32143C5.88445 2.47024 5.94174 2.59673 6.05633 2.70089C6.17091 2.80506 6.31005 2.85714 6.47374 2.85714H14.331C14.4947 2.85714 14.6339 2.80506 14.7485 2.70089C14.8631 2.59673 14.9203 2.47024 14.9203 2.32143ZM19.8312 10.4129V17.1429H18.2597V18.5714C18.2597 18.9658 18.1062 19.3025 17.7993 19.5815C17.4924 19.8605 17.122 20 16.6882 20C16.2544 20 15.8841 19.8605 15.5772 19.5815C15.2702 19.3025 15.1168 18.9658 15.1168 18.5714V17.1429H5.68801V18.5714C5.68801 18.9658 5.53455 19.3025 5.22763 19.5815C4.9207 19.8605 4.55034 20 4.11655 20C3.68277 20 3.31241 19.8605 3.00548 19.5815C2.69856 19.3025 2.54509 18.9658 2.54509 18.5714V17.1429H0.973633V10.4129C0.973633 9.57961 1.07594 8.75 1.28056 7.92411L2.54509 2.85714C2.61876 2.27679 3.01776 1.76711 3.7421 1.32812C4.46645 0.889137 5.40769 0.558036 6.56582 0.334821C7.72396 0.111607 9.00281 0 10.4024 0C11.802 0 13.0808 0.111607 14.239 0.334821C15.3971 0.558036 16.3383 0.889137 17.0627 1.32812C17.787 1.76711 18.186 2.27679 18.2597 2.85714L19.5488 7.92411C19.737 8.68304 19.8312 9.51265 19.8312 10.4129Z" fill="#1D2E5B"/>
</g>
<defs>
<clipPath id="clip0_1369_1075">
<rect width="18.8654" height="20" fill="white" transform="translate(0.970703)"/>
</clipPath>
</defs>
</svg>
