<svg width="24" height="22" viewBox="0 0 24 22" fill="none" xmlns="http://www.w3.org/2000/svg">
<g clip-path="url(#clip0_1369_1040)">
<path d="M18.8325 1.1803C18.028 1.36073 17.2197 1.542 16.919 2.03873L14.592 6.41228L2.09704 9.21442L1.5908 10.6118L11.1522 11.4647L9.52997 15.2509L5.90387 16.0641L4.99347 17.5521L7.60943 17.8201L7.90773 19.0371C8.04137 19.4685 8.51044 19.7565 8.91083 19.6667L10.1195 19.3956L11.5207 21.6492L12.4311 20.1611L11.5362 16.5101L14.1615 13.3536L19.1709 21.6468L20.1811 20.5656L17.0983 7.9887L19.9293 3.93144C20.2337 3.43387 20.0351 2.6238 19.8356 1.80994C19.7368 1.40681 19.2329 1.09051 18.8325 1.1803Z" fill="#101D41"/>
</g>
<defs>
<clipPath id="clip0_1369_1040">
<rect width="23" height="22" fill="white" transform="translate(0.297852)"/>
</clipPath>
</defs>
</svg>
