<svg width="23" height="24" viewBox="0 0 23 24" xmlns="http://www.w3.org/2000/svg">
<path d="M16.2454 6C17.2979 6 18.151 5.10457 18.151 4C18.151 2.89543 17.2979 2 16.2454 2C15.193 2 14.3398 2.89543 14.3398 4C14.3398 5.10457 15.193 6 16.2454 6Z" />
<path d="M15.0801 10.969C15.2989 11.311 15.6126 11.5742 15.9787 11.7227C16.3449 11.8712 16.7457 11.8978 17.1267 11.799L20.2862 10.97L19.826 9.02997L16.6665 9.85897L15.3526 7.79197C15.0719 7.35053 14.6363 7.04354 14.1407 6.93797L10.4762 6.16797C10.0663 6.08162 9.64064 6.13933 9.26506 6.33217C8.88947 6.52502 8.58483 6.84229 8.39817 7.23497L6.81844 10.551L8.52299 11.446L10.1027 8.12897L11.9769 8.52297L7.13095 17H2.90625V19H7.13095C7.79601 19 8.42199 18.628 8.765 18.029L10.5925 14.833L15.5175 15.867L17.2478 21.316L19.0543 20.683L17.3249 15.235C17.2182 14.9005 17.0294 14.6014 16.7775 14.3679C16.5256 14.1345 16.2195 13.9748 15.89 13.905L12.9945 13.298L14.6828 10.344L15.0801 10.969Z" />
</svg>
